<?xml version="1.0" encoding="iso-8859-1"?>
<!-- Uploaded to: SVG Repo, www.svgrepo.com, Generator: SVG Repo Mixer Tools -->
<svg version="1.1" id="Layer_1" xmlns="http://www.w3.org/2000/svg" xmlns:xlink="http://www.w3.org/1999/xlink" 
	 viewBox="0 0 360 360" xml:space="preserve">
<g id="XMLID_1187_">
	<g id="XMLID_1188_">
		<path id="XMLID_1191_" style="fill:#C1E8E6;" d="M360,90.91v178.18c0,16.04-13,29.04-29.04,29.04H29.04
			C13,298.13,0,285.13,0,269.09V90.91c0-16.04,13-29.04,29.04-29.04h301.92C347,61.87,360,74.87,360,90.91z"/>
		<path id="XMLID_1194_" style="fill:#A0CFF1;" d="M330.96,61.87H180.575v236.26H330.96c16.04,0,29.04-13,29.04-29.04V90.91
			C360,74.87,347,61.87,330.96,61.87z"/>
	</g>
	<g id="XMLID_1195_">
		<g id="XMLID_1196_">
			<g id="XMLID_46_">
				<polygon id="XMLID_1198_" style="fill:#1DD2A5;" points="36.863,110.52 91.672,139.397 135.228,119.309 55.129,102.096 				"/>
			</g>
			<path id="XMLID_45_" style="fill:#1DD2A5;" d="M32.223,148.452l11.307,3.488c24.182-12.408,90.503-46.351,103.735-52.201
				c10.697-4.729,27.701-0.442,29.176,2.325c0.021,0.039,3.135,12.61-21.93,27.019l-64.165,32.673l0,0l-39.07,19.895l-39.381-21.194
				L32.223,148.452z"/>
		</g>
		<g id="XMLID_1197_">
			<rect id="XMLID_41_" x="203" y="157.163" style="fill:#2CB79A;" width="142.667" height="25.333"/>
			<rect id="XMLID_38_" x="203" y="108.08" style="fill:#2CB79A;" width="142.667" height="25.333"/>
		</g>
	</g>
	<g id="XMLID_1199_">
		<rect id="XMLID_1202_" y="219.83" style="fill:#1DD2A5;" width="360" height="45"/>
		<rect id="XMLID_1205_" x="180.575" y="219.83" style="fill:#2CB79A;" width="179.425" height="45"/>
	</g>
</g>
</svg>