<?xml version="1.0" encoding="iso-8859-1"?>
<!-- Uploaded to: SVG Repo, www.svgrepo.com, Generator: SVG Repo Mixer Tools -->
<svg version="1.1" id="Layer_1" xmlns="http://www.w3.org/2000/svg" xmlns:xlink="http://www.w3.org/1999/xlink" 
	 viewBox="0 0 512 512" xml:space="preserve">
<polygon style="fill:#2C3E50;" points="64.736,0 64.736,512 140.928,447.776 203.04,497.856 267.136,447.776 328.336,506.112 
	391.136,447.776 447.264,512 447.264,0 "/>
<path style="fill:#32BEA6;" d="M244.688,238.672v-20.24c-14.288-0.64-28.144-4.48-36.256-9.168l6.4-24.96
	c8.96,4.896,21.536,9.376,35.408,9.376c12.16,0,20.48-4.688,20.48-13.216c0-8.112-6.832-13.232-22.608-18.56
	c-22.816-7.68-38.4-18.336-38.4-39.024c0-18.768,13.232-33.488,36.048-37.968V64.656h20.896v18.768
	c14.288,0.64,23.888,3.616,30.928,7.04l-6.176,24.096c-5.536-2.352-15.344-7.264-30.72-7.264c-13.856,0-18.336,5.968-18.336,11.952
	c0,7.04,7.472,11.52,25.6,18.336c25.376,8.96,35.616,20.688,35.616,39.888c0,18.976-13.44,35.184-37.968,39.456v21.744
	L244.688,238.672L244.688,238.672z"/>
<g>
	<rect x="152" y="298.832" style="fill:#FFFFFF;" width="208" height="16"/>
	<rect x="152" y="358.128" style="fill:#FFFFFF;" width="208" height="16"/>
</g>
</svg>